<svg xmlns="http://www.w3.org/2000/svg" viewBox="0 0 72 72.1"><defs><style>.cls-1{fill:#ffffff;}</style></defs><title>Asset 8</title><g id="Layer_2" data-name="Layer 2"><g id="Layer_1-2" data-name="Layer 1"><path class="cls-1" d="M0,0V72.1H72V0ZM43.8,29A10.4,10.4,0,0,0,29,29H16.2V23.7a8,8,0,0,1,3.4-6.5v8.6h1.6V16.3l1.2-.4v9.9H24V15.7h1.1V25.8h1.6V15.7H48.7a8,8,0,0,1,8,8h0V29Zm.6,7.3a8,8,0,1,1-2.7-6A8,8,0,0,1,44.4,36.2ZM24.2,56.4a8,8,0,0,1-8-8V30.2H27.9a10.4,10.4,0,1,0,16.9,0H56.7V48.4a8,8,0,0,1-8,8Z"/><circle class="cls-1" cx="36.4" cy="36.2" r="5.9"/><rect class="cls-1" x="46.1" y="19.1" width="6.9" height="6.99" rx="1.3" ry="1.3"/></g></g></svg>