<svg xmlns="http://www.w3.org/2000/svg" viewBox="0 0 72 72.1"><defs><style>.cls-1{fill:#4198a4;}</style></defs><title>Asset 6</title><g id="Layer_2" data-name="Layer 2"><g id="Layer_1-2" data-name="Layer 1"><path class="cls-1" d="M72,0H0V72.1H72ZM30.4,54.7a23.6,23.6,0,0,1-12.8-3.8A16.8,16.8,0,0,0,30,47.5a8.4,8.4,0,0,1-7.8-5.8,8.4,8.4,0,0,0,3.8-.1,8.4,8.4,0,0,1-6.7-8.3,8.3,8.3,0,0,0,3.8,1,8.4,8.4,0,0,1-2.6-11.1,23.7,23.7,0,0,0,17.2,8.7,8.4,8.4,0,0,1,14.2-7.6,16.7,16.7,0,0,0,5.3-2,8.4,8.4,0,0,1-3.7,4.6,16.7,16.7,0,0,0,4.8-1.3,17,17,0,0,1-4.2,4.3C54.7,41.6,45.9,54.7,30.4,54.7Z"/></g></g></svg>