<svg width="66" height="66" viewBox="0 0 66 66" fill="none" xmlns="http://www.w3.org/2000/svg">
<path d="M0 0V66H66V0H0ZM6 6H60V60H6V6ZM33 18.2402C33 18.2402 19.8279 18.2374 16.5879 19.1074C14.7879 19.6174 13.3472 21.0274 12.8672 22.8574C11.9972 26.1274 12 33.0293 12 33.0293C12 33.0293 11.9972 39.9305 12.8672 43.2305C13.3472 45.0305 14.7879 46.4126 16.5879 46.8926C19.8279 47.7626 33 47.7598 33 47.7598C33 47.7598 46.1721 47.7626 49.4121 46.8926C51.2121 46.3826 52.6528 45.0312 53.1328 43.2012C54.0028 39.9312 54 33.0293 54 33.0293C54 33.0293 54.0028 26.1574 53.1328 22.8574C52.6528 21.0274 51.2121 19.6174 49.4121 19.1074C46.1721 18.2374 33 18.2402 33 18.2402ZM27 24.4688L42 33.0352L27 41.5605V24.4688Z" fill="white"/>
</svg>
